<svg xmlns="http://www.w3.org/2000/svg" xmlnsXlink="http://www.w3.org/1999/xlink" xmlnsV="http://vecta.io" width="80"
    height="28" viewBox="0 0 114 28">
    <g>
        <g>
            <g transform="translate(49.718 7.7219)">
                <path
                    d="M 36.6691 13.1889 L 36.6613 8.4694 L 36.6379 0.0384 M 41.4121 3.6716 L 36.6613 8.469 L 41.4355 13.204 M 9.6101 8.5322 C 9.633 7.5202 9.3386 6.4861 8.7427 5.6489 C 7.8841 4.4431 6.4936 3.6177 4.9687 3.6018 C 4.8671 3.6018 4.7663 3.6018 4.664 3.6095 C 4.0611 3.6469 3.4772 3.7305 2.9605 3.9456 C -0.4372 5.3594 -1.0392 10.0778 1.8274 12.2128 C 4.3102 14.0594 7.9216 13.3067 9.1723 10.4862 C 9.4363 9.8901 9.6099 9.1388 9.6099 8.5325 L 9.6099 0 M 32.5357 4.1646 C 31.834 3.71 31.0113 3.546 30.1994 3.5473 C 30.1113 3.5473 30.0208 3.5517 29.9416 3.5551 C 27.594 3.6561 25.4174 5.3148 25.4174 8.5323 C 25.4174 12.3363 29.4962 14.3894 32.5453 12.5954 M 46.235 12.1812 L 53.447 6.0007 C 53.447 6.0007 53.2716 5.6689 53.1579 5.5163 C 52.1871 4.2134 50.7019 3.5626 49.1415 3.5626 C 45.2821 3.5626 42.3863 8.5552 46.235 12.1812 C 46.5014 12.4324 46.8674 12.629 47.2742 12.7985 C 48.6863 13.3872 50.6197 13.3391 51.6654 12.564 M 17.5035 3.5779 C 17.394 3.5798 17.2852 3.5916 17.1754 3.5937 C 14.2476 3.649 12.1368 6.6885 12.7762 9.5087 C 13.3995 12.2569 16.4018 13.8843 18.9959 12.9858 C 22.0169 12.1917 23.2486 8.3878 21.59 5.8206 C 20.6828 4.4172 19.1451 3.5469 17.5035 3.5781 Z M 61.9557 3.6718 C 60.7702 3.6749 59.6156 4.0902 58.7598 4.8905 C 57.4104 6.004 57.1175 7.4106 57.1348 9.1881 L 57.174 13.2278"
                    fill-rule="nonzero" stroke="#d23669" stroke-linejoin="miter" stroke-linecap="butt" fill="none"
                    stroke-width="1.9388912054850704" />
            </g>
            <g transform="translate(5.7711 0)">
                <path
                    d="M 21.4639 8.4448 L 25.6863 8.4448 L 25.6863 12.7612 L 27.8213 12.7612 C 28.8074 12.7612 29.8212 12.5858 30.755 12.2693 C 31.2137 12.1138 31.7287 11.8972 32.1813 11.623 C 31.5852 10.8448 31.2809 9.8621 31.1915 8.8937 C 31.0697 7.5764 31.3356 5.8616 32.2256 4.8305 L 32.6696 4.3171 L 33.1984 4.7422 C 34.5279 5.8121 35.6499 7.309 35.8473 9.0112 C 37.4507 8.5396 39.3333 8.6511 40.7463 9.4667 L 41.3262 9.8013 L 41.0209 10.397 C 39.8273 12.7317 37.3283 13.4542 34.8853 13.3263 C 31.2298 22.4299 23.2708 26.7423 13.6207 26.7423 C 8.6349 26.7423 4.0609 24.8785 1.4561 20.4552 C 1.3034 20.1804 1.1726 19.8931 1.0339 19.611 C 0.1535 17.6639 -0.139 15.5309 0.0593 13.3996 L 0.1188 12.7612 L 3.7296 12.7612 L 3.7296 8.4448 L 7.952 8.4448 L 7.952 4.2224 L 16.3968 4.2224 L 16.3968 0 L 21.4639 0 L 21.4639 8.4448"
                    fill-rule="nonzero" stroke="none" stroke-linejoin="miter" stroke-linecap="butt" fill="#10181f"
                    stroke-width="0.18465630528429244" />
            </g>
            <g transform="translate(6.4776 5.2927)">
                <path
                    d="M 39.6894 4.7761 C 38.5975 6.9096 36.2067 7.5486 33.7144 7.293 C 30.2016 16.6009 22.2641 20.7443 12.9115 20.7443 C 8.6883 20.7443 5.0302 19.4147 2.5766 16.6589 C 2.4319 16.4548 2.3491 16.2853 2.1205 15.9779 C 1.903 15.6852 1.6918 15.3858 1.5127 15.0683 C 1.5037 15.0522 1.4947 15.0361 1.4857 15.0199 L 1.174 14.4604 C 0.2457 12.6356 -0.158 10.5013 0.0561 8.1721 L 27.1145 8.1721 C 29.3377 8.1721 31.5087 7.3426 32.5391 6.4274 C 30.6929 4.9263 30.8757 1.3606 32.0525 0 C 33.0737 0.8204 34.7203 2.5489 34.4351 4.7504 C 35.7209 4.1025 37.9512 3.7814 39.6894 4.7761 Z"
                    fill="#d23669" stroke="none" stroke-width="0.18465630528429244" stroke-linecap="butt"
                    stroke-linejoin="miter" />
            </g>
            <g transform="translate(22.8718 0.7036)">
                <path d="M 0 0 L 3.6596 0 L 3.6596 3.6596 L 0 3.6596 Z" fill-rule="nonzero" stroke="none"
                    stroke-linejoin="miter" stroke-linecap="butt" fill="#d23669" stroke-width="0.18465630528429244" />
            </g>
            <g transform="translate(23.321 1.0082)">
                <path
                    d="M 0 3.05 L 1e-13 1e-13 M 0.5488 3.0498 L 0.5488 0 M 1.1032 3.0498 L 1.1032 0 M 1.6577 3.0498 L 1.6577 0 M 2.2122 3.0498 L 2.2122 0 M 2.7607 3.0498 L 2.7607 0"
                    fill-rule="nonzero" stroke="#10181f" stroke-linejoin="miter" stroke-linecap="butt" fill="#10181f"
                    stroke-width="0.2880638362434962" />
            </g>
            <g transform="translate(10.2046 9.1506)">
                <path d="M 0 3.6594 L 3.6596 3.6594 L 3.6596 0 L 0 0 Z" fill-rule="nonzero" stroke="none"
                    stroke-linejoin="miter" stroke-linecap="butt" fill="#d23669" stroke-width="0.18465630528429244" />
            </g>
            <g transform="translate(10.6537 9.4533)">
                <path
                    d="M 1e-13 1e-13 L 0 3.05 M 0.5488 0.0002 L 0.5488 3.05 M 1.1031 0.0002 L 1.1031 3.05 M 1.6577 0.0002 L 1.6577 3.05 M 2.2122 0.0002 L 2.2122 3.05 M 2.7607 0.0002 L 2.7607 3.05"
                    fill-rule="nonzero" stroke="#10181f" stroke-linejoin="miter" stroke-linecap="butt" fill="#10181f"
                    stroke-width="0.2880638362434962" />
            </g>
            <g transform="translate(14.427 4.9242)">
                <path d="M 0 0 L 3.6596 0 L 3.6596 3.6594 L 0 3.6594 Z" fill-rule="nonzero" stroke="none"
                    stroke-linejoin="miter" stroke-linecap="butt" fill="#d23669" stroke-width="0.18465734586238222" />
            </g>
            <g transform="translate(14.427 9.1484)">
                <path d="M 0 0 L 3.6596 0 L 3.6596 3.6596 L 0 3.6596 Z" fill-rule="nonzero" stroke="none"
                    stroke-linejoin="miter" stroke-linecap="butt" fill="#d23669" stroke-width="0.18465734586238222" />
            </g>
            <g transform="translate(14.8761 5.2306)">
                <path
                    d="M 0 3.05 L 1e-13 1e-13 M 0.5488 3.0498 L 0.5488 0 M 1.1031 3.0498 L 1.1031 0 M 1.6577 3.0498 L 1.6577 0 M 2.2122 3.0498 L 2.2122 0 M 2.7607 3.0498 L 2.7607 0"
                    fill-rule="nonzero" stroke="#10181f" stroke-linejoin="miter" stroke-linecap="butt" fill="#10181f"
                    stroke-width="0.28806545954531626" />
            </g>
            <g transform="translate(14.8761 9.453)">
                <path
                    d="M 0 3.05 L 1e-13 1e-13 M 0.5488 3.0498 L 0.5488 0 M 1.1031 3.0498 L 1.1031 0 M 1.6577 3.0498 L 1.6577 0 M 2.2122 3.0498 L 2.2122 0 M 2.7607 3.0498 L 2.7607 0"
                    fill-rule="nonzero" stroke="#10181f" stroke-linejoin="miter" stroke-linecap="butt" fill="#10181f"
                    stroke-width="0.28806545954531626" />
            </g>
            <g transform="translate(18.6494 9.1506)">
                <path d="M 0 3.6594 L 3.6596 3.6594 L 3.6596 0 L 0 0 Z" fill-rule="nonzero" stroke="none"
                    stroke-linejoin="miter" stroke-linecap="butt" fill="#d23669" stroke-width="0.18465630528429244" />
            </g>
            <g transform="translate(18.6494 4.9261)">
                <path d="M 0 3.6596 L 3.6596 3.6596 L 3.6596 0 L 0 0 Z" fill-rule="nonzero" stroke="none"
                    stroke-linejoin="miter" stroke-linecap="butt" fill="#d23669" stroke-width="0.18465630528429244" />
            </g>
            <g transform="translate(19.0986 9.4533)">
                <path
                    d="M 1e-13 1e-13 L 0 3.05 M 0.5488 0.0002 L 0.5488 3.05 M 1.1032 0.0002 L 1.1032 3.05 M 1.6577 0.0002 L 1.6577 3.05 M 2.2122 0.0002 L 2.2122 3.05 M 2.7607 0.0002 L 2.7607 3.05"
                    fill-rule="nonzero" stroke="#10181f" stroke-linejoin="miter" stroke-linecap="butt" fill="#10181f"
                    stroke-width="0.2880638362434962" />
            </g>
            <g transform="translate(19.0986 5.2309)">
                <path
                    d="M 1e-13 1e-13 L 0 3.05 M 0.5488 0.0002 L 0.5488 3.05 M 1.1032 0.0002 L 1.1032 3.05 M 1.6577 0.0002 L 1.6577 3.05 M 2.2122 0.0002 L 2.2122 3.05 M 2.7607 0.0002 L 2.7607 3.05"
                    fill-rule="nonzero" stroke="#10181f" stroke-linejoin="miter" stroke-linecap="butt" fill="#10181f"
                    stroke-width="0.28807032965203283" />
            </g>
            <g transform="translate(22.8718 4.9242)">
                <path d="M 0 0 L 3.6596 0 L 3.6596 3.6594 L 0 3.6594 Z" fill-rule="nonzero" stroke="none"
                    stroke-linejoin="miter" stroke-linecap="butt" fill="#d23669" stroke-width="0.18465630528429244" />
            </g>
            <g transform="translate(22.8718 9.1484)">
                <path d="M 0 0 L 3.6596 0 L 3.6596 3.6596 L 0 3.6596 Z" fill-rule="nonzero" stroke="none"
                    stroke-linejoin="miter" stroke-linecap="butt" fill="#d23669" stroke-width="0.18465630528429244" />
            </g>
            <g transform="translate(23.321 5.2306)">
                <path
                    d="M 0 3.05 L 1e-13 1e-13 M 0.5488 3.0498 L 0.5488 0 M 1.1032 3.0498 L 1.1032 0 M 1.6577 3.0498 L 1.6577 0 M 2.2122 3.0498 L 2.2122 0 M 2.7607 3.0498 L 2.7607 0"
                    fill-rule="nonzero" stroke="#10181f" stroke-linejoin="miter" stroke-linecap="butt" fill="#10181f"
                    stroke-width="0.2880638362434962" />
            </g>
            <g transform="translate(23.321 9.453)">
                <path
                    d="M 0 3.05 L 1e-13 1e-13 M 0.5488 3.0498 L 0.5488 0 M 1.1032 3.0498 L 1.1032 0 M 1.6577 3.0498 L 1.6577 0 M 2.2122 3.0498 L 2.2122 0 M 2.7607 3.0498 L 2.7607 0"
                    fill-rule="nonzero" stroke="#10181f" stroke-linejoin="miter" stroke-linecap="butt" fill="#10181f"
                    stroke-width="0.2880638362434962" />
            </g>
            <g transform="translate(27.0943 9.1506)">
                <path d="M 0 3.6594 L 3.6596 3.6594 L 3.6596 0 L 0 0 Z" fill-rule="nonzero" stroke="none"
                    stroke-linejoin="miter" stroke-linecap="butt" fill="#d23669" stroke-width="0.18465630528429244" />
            </g>
            <g transform="translate(27.5434 9.4533)">
                <path
                    d="M 1e-13 1e-13 L 0 3.05 M 0.5488 0.0002 L 0.5488 3.05 M 1.1032 0.0002 L 1.1032 3.05 M 1.6577 0.0002 L 1.6577 3.05 M 2.2122 0.0002 L 2.2122 3.05 M 2.7607 0.0002 L 2.7607 3.05"
                    fill-rule="nonzero" stroke="#10181f" stroke-linejoin="miter" stroke-linecap="butt" fill="#10181f"
                    stroke-width="0.2880638362434962" />
            </g>
            <g transform="translate(16.8474 18.7414)">
                <path
                    d="M 2.0193 1.0097 C 2.0189 1.5671 1.5671 2.0189 1.0097 2.0192 C 0.4522 2.019 0.0003 1.5672 0 1.0097 C 0.0002 0.4521 0.4522 0.0002 1.0097 0 C 1.5672 0.0003 2.019 0.4522 2.0193 1.0097 Z"
                    fill-rule="nonzero" stroke="none" stroke-linejoin="miter" stroke-linecap="butt" fill="#d23669"
                    stroke-width="0.18465630528429244" />
            </g>
            <g transform="translate(0 14.6992)">
                <path
                    d="M 18.1187 4.3775 C 18.0039 4.4447 17.9481 4.5804 17.9825 4.7089 C 18.0169 4.8375 18.133 4.9272 18.2661 4.928 C 18.3778 4.928 18.4748 4.8659 18.525 4.7744 C 18.5605 4.8597 18.58 4.9535 18.58 5.0517 C 18.58 5.4509 18.2563 5.7747 17.8569 5.7747 C 17.4575 5.7747 17.1338 5.4509 17.1338 5.0517 C 17.1341 4.6524 17.4576 4.3288 17.8569 4.3284 C 17.9465 4.3283 18.0353 4.3449 18.1187 4.3773 Z M 0 1.95 L 46.9638 1.95 C 45.9411 1.6906 43.7285 1.3402 44.0932 0 C 42.2337 2.1516 37.7497 1.5094 36.6183 0.4487 C 35.358 2.2765 28.0215 1.5818 27.5098 0.1579 C 25.9298 2.0118 21.0343 2.0118 19.4544 0.1579 C 18.9425 1.5797 11.6064 2.2765 10.3457 0.4487 C 9.2141 1.5098 4.7321 2.1518 2.8707 0 C 3.2356 1.3402 1.023 1.6907 0 1.95"
                    fill-rule="nonzero" stroke="none" stroke-linejoin="miter" stroke-linecap="butt" fill="#10181f"
                    stroke-width="0.18465630528429244" />
            </g>
            <g transform="translate(6.6041 16.4347)">
                <path
                    d="M 1.3863 3.9263 C 1.3772 3.9102 1.3682 3.8941 1.3593 3.8779 L 1.0476 3.3184 C 0.5301 2.301 0.1756 1.1873 0 0 L 31.7153 0 C 27.6582 6.6104 20.7326 9.6023 12.7851 9.6023 C 8.5619 9.6023 4.9038 8.2727 2.4502 5.5169 C 2.3055 5.3128 2.2227 5.1433 1.9941 4.8359 C 1.7766 4.5432 1.5653 4.2438 1.3863 3.9263 Z"
                    fill="#10181f" stroke="none" stroke-width="0.18465630528429244" stroke-linecap="butt"
                    stroke-linejoin="miter" fill-opacity="0.17" />
            </g>
            <g transform="translate(8.9289 21.4585)">
                <path
                    d="M 11.612 4.56 C 9.1117 3.3735 7.7393 1.7605 6.9757 0 L 0 0.3043 C 0.04 0.3674 0.0796 0.4285 0.1253 0.4931 C 2.5789 3.2489 6.237 4.5785 10.4602 4.5785 C 10.8448 4.5785 11.227 4.5715 11.6066 4.5574 C 11.6208 4.5569 11.6351 4.5563 11.6493 4.5558"
                    fill="#d23669" stroke="none" stroke-width="0.18465630528429244" stroke-linecap="butt"
                    stroke-linejoin="miter" />
            </g>
            <g transform="translate(6.4777 9.4359)">
                <path
                    d="M 34.6089 0.5227 C 35.9141 -0.0662 38.0267 -0.3183 39.687 0.6396 C 38.5975 2.7663 36.2067 3.4053 33.7144 3.1497 C 30.2016 12.4576 22.2641 16.601 12.9115 16.601 C 8.6883 16.601 5.0302 15.2714 2.5766 12.5156 C 2.4319 12.3115 2.3491 12.142 2.1205 11.8346 C 1.9029 11.542 1.6917 11.2425 1.5127 10.9251 C 1.5036 10.909 1.4946 10.8928 1.4857 10.8766 L 1.174 10.3171 C 0.2457 8.4923 -0.158 6.358 0.0562 4.0273 L 1.6589 4.0273 C 1.5485 7.5815 2.8627 10.279 5.1963 11.9099 C 5.5331 12.113 5.8692 12.3279 6.2119 12.5215 C 9.3948 14.1538 14.0082 14.1443 19.2996 12.1115 C 25.2314 9.8329 30.7569 5.497 34.6155 0.5197 L 34.6089 0.5297"
                    stroke="none" stroke-width="0.18465630528429244" stroke-linecap="butt" stroke-linejoin="miter"
                    fill="#10181f" fill-opacity="0.14" />
            </g>
            <g transform="translate(8.4251 21.016)">
                <path d="M 0 0.5946 C 2.6157 0.7377 5.4072 0.7634 7.8425 0" fill-rule="nonzero" stroke="#10181f"
                    stroke-linejoin="miter" fill="none" stroke-width="0.6278314379665942" />
            </g>
        </g>
    </g>
</svg>