<svg xmlns="http://www.w3.org/2000/svg" xmlns:xlink="http://www.w3.org/1999/xlink" viewBox="0 0 103 34" fill="#10181f"
    fill-rule="evenodd" stroke="#d23669" stroke-linecap="round" stroke-linejoin="round" width="120" height="60">
    <use xlink:href="#A" x=".5" y=".5" />
    <symbol id="A" overflow="visible">
        <g stroke="none" fill-rule="nonzero">
            <path
                d="M55.505 10.009a1.53 1.53 0 0 1-1.519 1.519c-.659 0-1.232.172-1.719.545-.544.344-.974.831-1.318 1.376-.688.917-1.031 2.006-1.175 2.407V21.3c0 .831-.716 1.519-1.576 1.519a1.53 1.53 0 0 1-1.519-1.519v-11.29c0-.831.687-1.49 1.519-1.49.86 0 1.576.659 1.576 1.49v.201c.172-.201.399-.43.602-.573.946-.63 2.177-1.146 3.61-1.118.86 0 1.519.659 1.519 1.49zm-.843 5.646c.029-3.897 3.066-7.164 6.992-7.164 3.725 0 6.674 2.78 6.906 6.648v.143c0 .058 0 .2-.029.258-.089.688-.688 1.146-1.49 1.146h-9.11c.143.659.458 1.404.974 1.892.602.688 1.748 1.203 2.751 1.289 1.032.086 2.262-.172 2.98-.716.602-.631 1.777-.544 2.149-.089.373.399.659 1.261 0 1.863-1.404 1.289-3.095 1.892-5.129 1.892-3.925-.028-6.963-3.266-6.992-7.163zm3.124-1.404h8.109c-.286-1.146-1.748-2.837-4.241-3.037-2.435.114-3.636 1.863-3.868 3.037zm25.374 7.021a1.56 1.56 0 0 1-1.548 1.548 1.54 1.54 0 0 1-1.519-1.232c-1.087.745-2.464 1.232-3.897 1.232-3.868 0-6.963-3.267-6.963-7.135 0-3.926 3.095-7.193 6.963-7.193 1.404 0 2.779.458 3.84 1.203V4.308c0-.831.688-1.548 1.576-1.548a1.56 1.56 0 0 1 1.548 1.548v16.964zm-6.963-9.657c-1.032 0-1.977.43-2.693 1.175-.716.716-1.146 1.748-1.146 2.894 0 1.086.43 2.12 1.146 2.837.716.745 1.662 1.175 2.693 1.175 1.06 0 1.977-.43 2.693-1.175.716-.716 1.146-1.748 1.146-2.837 0-1.146-.43-2.177-1.146-2.894-.716-.745-1.633-1.175-2.693-1.175zm12.416-6.705c0 .86-.659 1.576-1.548 1.576-.86 0-1.547-.716-1.547-1.576v-.602a1.54 1.54 0 0 1 1.547-1.548 1.52 1.52 0 0 1 1.548 1.548zm0 5.189v11.176a1.52 1.52 0 0 1-1.548 1.548 1.54 1.54 0 0 1-1.547-1.547V10.098c0-.917.687-1.576 1.547-1.576.889 0 1.548.659 1.548 1.576zm1.969 8.621c.516-.687 1.519-.773 2.149-.229.745.631 2.035 1.289 3.152 1.261.776 0 1.49-.258 1.949-.544.399-.344.516-.63.516-.86a.43.43 0 0 0-.086-.287c-.029-.086-.143-.2-.373-.344-.399-.287-1.261-.602-2.292-.803h-.029c-.888-.172-1.748-.399-2.493-.745-.776-.372-1.463-.888-1.977-1.662-.315-.516-.487-1.146-.487-1.805 0-1.318.745-2.436 1.691-3.152 1.003-.687 2.206-1.06 3.525-1.06 1.977 0 3.381.946 4.298 1.576.688.459.888 1.404.458 2.12-.458.688-1.404.889-2.12.399-.917-.602-1.719-1.06-2.639-1.06-.716 0-1.347.229-1.719.516-.373.258-.458.516-.458.659 0 .114 0 .143.057.229.029.057.115.172.315.286.373.258 1.118.516 2.092.688l.029.029h.029c.946.172 1.834.43 2.665.831.776.344 1.548.888 2.035 1.69.344.573.544 1.232.544 1.891 0 1.404-.776 2.579-1.805 3.326-1.032.716-2.321 1.146-3.725 1.146-2.235-.029-3.954-1.06-5.1-1.977-.631-.516-.716-1.49-.201-2.121z"
                fill="#d23669" />
            <path
                d="M36.242 24.926c-2.013 1.049-12.441 5.337-14.661 6.494s-3.453 1.146-5.207.31-12.851-5.321-14.85-6.276C.525 24.976 0 24.574 0 24.193v-3.815s14.447-3.145 16.779-3.982 3.141-.865 5.126-.14 13.853 2.868 15.814 3.587l-.001 3.759c0 .377-.452.79-1.477 1.325z"
                fill="#10181f" />
            <path
                d="M36.243 21.112c-2.013 1.049-12.441 5.337-14.661 6.494s-3.453 1.146-5.207.311-12.851-5.321-14.85-6.276-2.041-1.613-.077-2.382l15.332-5.936c2.332-.836 3.141-.865 5.126-.14s12.351 4.853 14.312 5.571 2.037 1.311.022 2.36z"
                fill="#d23669" />
            <path
                d="M36.242 18.709c-2.013 1.049-12.441 5.337-14.661 6.497s-3.453 1.146-5.207.308-12.851-5.321-14.85-6.276C.525 18.759 0 18.357 0 17.976v-3.815s14.447-3.145 16.779-3.982 3.141-.865 5.126-.14 13.853 2.868 15.814 3.587l-.001 3.759c0 .377-.452.79-1.477 1.324z"
                fill="#10181f" />
            <path
                d="M36.243 14.895c-2.013 1.049-12.441 5.337-14.661 6.497s-3.453 1.146-5.207.308-12.851-5.321-14.85-6.276-2.041-1.613-.077-2.382L16.78 7.105c2.332-.837 3.141-.865 5.126-.14s12.351 4.853 14.312 5.571 2.037 1.311.022 2.36z"
                fill="#d23669" />
            <path
                d="M36.242 12.261c-2.013 1.049-12.441 5.337-14.661 6.497s-3.453 1.146-5.207.308-12.851-5.321-14.85-6.276C.525 12.311 0 11.909 0 11.528V7.711s14.447-3.145 16.779-3.981 3.141-.865 5.126-.14S35.759 6.457 37.72 7.176l-.001 3.759c0 .376-.452.79-1.477 1.324z"
                fill="#10181f" />
            <path
                d="M36.243 8.447c-2.013 1.049-12.441 5.337-14.661 6.497s-3.453 1.146-5.207.308S3.524 9.93 1.525 8.975-.516 7.362 1.448 6.593L16.78.657c2.332-.837 3.141-.865 5.126-.14S34.257 5.37 36.218 6.089s2.037 1.311.022 2.36z"
                fill="#d23669" />
            <path
                d="M18.621 4.91l-3.774-.339 2.816-1.016-.843-1.559 2.639 1.031 2.483-.814-.672 1.612 2.534.949-3.268.339-.732 1.761zm-5.113 5.876l8.741-1.341-2.639 3.872zM6.479 7.564c0-1.003 2.084-1.811 4.672-1.811s4.672.808 4.672 1.811-2.084 1.811-4.672 1.811-4.672-.808-4.672-1.811z" />
            <path d="M32.84 7.3l-5.167 2.04V5.253z" fill="#10181f" />
            <path d="M27.668 5.256v4.087l-.561.222-5.166-2.04z" fill="#10181f" />
        </g>
    </symbol>
</svg>